<svg width="28" height="25" viewBox="0 0 28 25" fill="none" xmlns="http://www.w3.org/2000/svg">
<path d="M0.0165253 3.48571C0.0165253 2.69006 0.505362 1.927 1.3755 1.36439C2.24563 0.801785 3.42579 0.485714 4.65634 0.485714L23.2156 0.485714C24.4462 0.485714 25.6263 0.801785 26.4965 1.36439C27.3666 1.927 27.8554 2.69006 27.8554 3.48571V21.4857C27.8554 22.2814 27.3666 23.0444 26.4965 23.607C25.6263 24.1696 24.4462 24.4857 23.2156 24.4857H4.65634C3.42579 24.4857 2.24563 24.1696 1.3755 23.607C0.505362 23.0444 0.0165253 22.2814 0.0165253 21.4857V3.48571ZM4.65634 1.98571C4.04106 1.98571 3.45099 2.14375 3.01592 2.42505C2.58085 2.70636 2.33643 3.08789 2.33643 3.48571V9.48571H25.5355V3.48571C25.5355 3.08789 25.2911 2.70636 24.856 2.42505C24.421 2.14375 23.8309 1.98571 23.2156 1.98571H4.65634ZM25.5355 10.9857H9.29616V13.9857H25.5355V10.9857ZM25.5355 15.4857H9.29616V18.4857H25.5355V15.4857ZM25.5355 19.9857H9.29616V22.9857H23.2156C23.8309 22.9857 24.421 22.8277 24.856 22.5464C25.2911 22.2651 25.5355 21.8835 25.5355 21.4857V19.9857ZM6.97625 22.9857V19.9857H2.33643V21.4857C2.33643 21.8835 2.58085 22.2651 3.01592 22.5464C3.45099 22.8277 4.04106 22.9857 4.65634 22.9857H6.97625ZM2.33643 18.4857H6.97625V15.4857H2.33643V18.4857ZM2.33643 13.9857H6.97625V10.9857H2.33643V13.9857Z" fill="black"/>
</svg>
