<svg width="27" height="27" viewBox="0 0 27 27" fill="none" xmlns="http://www.w3.org/2000/svg">
<path d="M13.8398 0.275426C13.746 0.18812 13.6346 0.118852 13.512 0.0715898C13.3893 0.0243277 13.2578 0 13.125 0C12.9922 0 12.8607 0.0243277 12.738 0.0715898C12.6154 0.118852 12.504 0.18812 12.4102 0.275426L0.294809 11.5254C0.201113 11.6126 0.12685 11.7162 0.0762646 11.8301C0.0256795 11.9439 -0.000235341 12.066 1.61033e-06 12.1892V25.3142C1.61033e-06 25.5628 0.106371 25.8013 0.295711 25.9771C0.485051 26.1529 0.74185 26.2517 1.00962 26.2517H10.0962C10.3639 26.2517 10.6207 26.1529 10.8101 25.9771C10.9994 25.8013 11.1058 25.5628 11.1058 25.3142V17.8142H15.1442V25.3142C15.1442 25.5628 15.2506 25.8013 15.4399 25.9771C15.6293 26.1529 15.8861 26.2517 16.1538 26.2517H25.2404C25.5081 26.2517 25.7649 26.1529 25.9543 25.9771C26.1436 25.8013 26.25 25.5628 26.25 25.3142V12.1892C26.2502 12.066 26.2243 11.9439 26.1737 11.8301C26.1231 11.7162 26.0489 11.6126 25.9552 11.5254L23.2212 8.98855V2.81418C23.2212 2.56554 23.1148 2.32708 22.9254 2.15126C22.7361 1.97545 22.4793 1.87668 22.2115 1.87668H20.1923C19.9245 1.87668 19.6677 1.97545 19.4784 2.15126C19.2891 2.32708 19.1827 2.56554 19.1827 2.81418V5.23855L13.8398 0.275426ZM2.01923 24.3767V12.5773L13.125 2.2648L24.2308 12.5773V24.3767H17.1635V16.8767C17.1635 16.628 17.0571 16.3896 16.8678 16.2138C16.6784 16.0379 16.4216 15.9392 16.1538 15.9392H10.0962C9.82839 15.9392 9.57159 16.0379 9.38225 16.2138C9.19291 16.3896 9.08654 16.628 9.08654 16.8767V24.3767H2.01923Z" fill="black"/>
</svg>
