<svg width="30" height="30" viewBox="0 0 30 30" fill="none" xmlns="http://www.w3.org/2000/svg">
<path d="M28.0435 29.9998H28.0433L20.2161 29.9989C19.6974 29.9982 19.2002 29.7975 18.8335 29.4409C18.4668 29.0842 18.2605 28.6006 18.2599 28.0963V20.4856C18.2597 20.3174 18.191 20.1562 18.0687 20.0373C17.9464 19.9184 17.7806 19.8515 17.6077 19.8514H12.3903C12.2174 19.8515 12.0516 19.9184 11.9294 20.0373C11.8071 20.1562 11.7383 20.3174 11.7382 20.4856V28.0961C11.7375 28.6005 11.5312 29.0841 11.1645 29.4408C10.7977 29.7974 10.3005 29.9981 9.78179 29.9987L1.95685 30C1.69988 30.0001 1.44542 29.9509 1.20799 29.8553C0.970571 29.7597 0.754838 29.6196 0.57312 29.4429C0.391401 29.2662 0.247256 29.0564 0.148919 28.8256C0.0505815 28.5947 -2.1417e-05 28.3473 6.79979e-09 28.0974V13.4376C0.000205843 13.1725 0.0572688 12.9104 0.167543 12.6679C0.277817 12.4255 0.438877 12.2081 0.640435 12.0296L13.6828 0.49744C14.0421 0.177471 14.5117 0 14.9989 0C15.4862 0 15.9557 0.177471 16.3151 0.49744L29.3596 12.0298C29.5611 12.2083 29.7221 12.4257 29.8324 12.6681C29.9427 12.9105 29.9998 13.1726 30 13.4377V28.0974C30 28.3472 29.9494 28.5946 29.8511 28.8255C29.7528 29.0563 29.6087 29.2661 29.427 29.4428C29.2453 29.6195 29.0296 29.7596 28.7922 29.8552C28.5548 29.9508 28.3004 30 28.0435 30V29.9998ZM12.3903 18.5829H17.6077C18.1264 18.5835 18.6238 18.7841 18.9906 19.1408C19.3574 19.4975 19.5637 19.9811 19.5642 20.4856V28.0961C19.5644 28.2642 19.6332 28.4255 19.7554 28.5444C19.8777 28.6633 20.0435 28.7301 20.2164 28.7303L28.0435 28.7316C28.2164 28.7316 28.3823 28.6648 28.5046 28.5458C28.6269 28.4269 28.6957 28.2656 28.6957 28.0974V13.4376C28.6955 13.3492 28.6765 13.2618 28.6397 13.181C28.6029 13.1002 28.5493 13.0278 28.4821 12.9683L15.4379 1.43591C15.3181 1.32924 15.1616 1.27008 14.9991 1.27008C14.8367 1.27008 14.6801 1.32924 14.5603 1.43591L1.51794 12.9683C1.4507 13.0277 1.39698 13.1002 1.3602 13.181C1.32342 13.2618 1.3044 13.3492 1.30435 13.4376V28.0974C1.30435 28.1807 1.32122 28.2631 1.35401 28.3401C1.38679 28.4171 1.43485 28.487 1.49542 28.5459C1.556 28.6048 1.62791 28.6515 1.70706 28.6833C1.7862 28.7152 1.87103 28.7316 1.95668 28.7316L9.78163 28.7306C9.95453 28.7304 10.1203 28.6635 10.2425 28.5446C10.3648 28.4257 10.4336 28.2646 10.4338 28.0964V20.4857C10.4344 19.9813 10.6407 19.4977 11.0075 19.141C11.3743 18.7843 11.8716 18.5836 12.3903 18.5831V18.5829Z" fill="#D13918"/>
</svg>
