<svg width="35" height="37" viewBox="0 0 35 37" fill="none" xmlns="http://www.w3.org/2000/svg">
<path fill-rule="evenodd" clip-rule="evenodd" d="M4.375 5.78125C4.08492 5.78125 3.80672 5.90307 3.6016 6.11991C3.39648 6.33675 3.28125 6.63084 3.28125 6.9375V9.25C3.28125 9.55666 3.39648 9.85075 3.6016 10.0676C3.80672 10.2844 4.08492 10.4062 4.375 10.4062H6.5625C6.85258 10.4062 7.13078 10.2844 7.3359 10.0676C7.54102 9.85075 7.65625 9.55666 7.65625 9.25V6.9375C7.65625 6.63084 7.54102 6.33675 7.3359 6.11991C7.13078 5.90307 6.85258 5.78125 6.5625 5.78125H4.375ZM6.5625 6.9375H4.375V9.25H6.5625V6.9375Z" fill="#D13918"/>
<path d="M10.9375 8.09375C10.9375 7.78709 11.0527 7.493 11.2579 7.27616C11.463 7.05932 11.7412 6.9375 12.0312 6.9375H31.7188C32.0088 6.9375 32.287 7.05932 32.4921 7.27616C32.6973 7.493 32.8125 7.78709 32.8125 8.09375C32.8125 8.40041 32.6973 8.6945 32.4921 8.91134C32.287 9.12818 32.0088 9.25 31.7188 9.25H12.0312C11.7412 9.25 11.463 9.12818 11.2579 8.91134C11.0527 8.6945 10.9375 8.40041 10.9375 8.09375ZM12.0312 16.1875C11.7412 16.1875 11.463 16.3093 11.2579 16.5262C11.0527 16.743 10.9375 17.0371 10.9375 17.3438C10.9375 17.6504 11.0527 17.9445 11.2579 18.1613C11.463 18.3782 11.7412 18.5 12.0312 18.5H31.7188C32.0088 18.5 32.287 18.3782 32.4921 18.1613C32.6973 17.9445 32.8125 17.6504 32.8125 17.3438C32.8125 17.0371 32.6973 16.743 32.4921 16.5262C32.287 16.3093 32.0088 16.1875 31.7188 16.1875H12.0312ZM12.0312 25.4375C11.7412 25.4375 11.463 25.5593 11.2579 25.7762C11.0527 25.993 10.9375 26.2871 10.9375 26.5938C10.9375 26.9004 11.0527 27.1945 11.2579 27.4113C11.463 27.6282 11.7412 27.75 12.0312 27.75H31.7188C32.0088 27.75 32.287 27.6282 32.4921 27.4113C32.6973 27.1945 32.8125 26.9004 32.8125 26.5938C32.8125 26.2871 32.6973 25.993 32.4921 25.7762C32.287 25.5593 32.0088 25.4375 31.7188 25.4375H12.0312Z" fill="#D13918"/>
<path fill-rule="evenodd" clip-rule="evenodd" d="M3.28125 16.1875C3.28125 15.8808 3.39648 15.5867 3.6016 15.3699C3.80672 15.1531 4.08492 15.0312 4.375 15.0312H6.5625C6.85258 15.0312 7.13078 15.1531 7.3359 15.3699C7.54102 15.5867 7.65625 15.8808 7.65625 16.1875V18.5C7.65625 18.8067 7.54102 19.1008 7.3359 19.3176C7.13078 19.5344 6.85258 19.6562 6.5625 19.6562H4.375C4.08492 19.6562 3.80672 19.5344 3.6016 19.3176C3.39648 19.1008 3.28125 18.8067 3.28125 18.5V16.1875ZM4.375 16.1875H6.5625V18.5H4.375V16.1875ZM4.375 24.2812C4.08492 24.2812 3.80672 24.4031 3.6016 24.6199C3.39648 24.8367 3.28125 25.1308 3.28125 25.4375V27.75C3.28125 28.0567 3.39648 28.3508 3.6016 28.5676C3.80672 28.7844 4.08492 28.9062 4.375 28.9062H6.5625C6.85258 28.9062 7.13078 28.7844 7.3359 28.5676C7.54102 28.3508 7.65625 28.0567 7.65625 27.75V25.4375C7.65625 25.1308 7.54102 24.8367 7.3359 24.6199C7.13078 24.4031 6.85258 24.2812 6.5625 24.2812H4.375ZM6.5625 25.4375H4.375V27.75H6.5625V25.4375Z" fill="#D13918"/>
</svg>
