<svg id="Capa_1" enable-background="new 0 0 512 512" height="512" viewBox="0 0 512 512" width="512" xmlns="http://www.w3.org/2000/svg"><g><path d="m136 181h23.787l-34.393 34.394c-4.29 4.29-5.573 10.742-3.252 16.347 2.322 5.605 7.792 9.26 13.858 9.26h60c8.284 0 15-6.716 15-15s-6.716-15-15-15h-23.787l34.393-34.394c4.29-4.29 5.573-10.742 3.252-16.347-2.322-5.605-7.792-9.26-13.858-9.26h-60c-8.284 0-15 6.716-15 15s6.716 15 15 15z"/><path d="m256 211h53.787l-64.393 64.394c-4.29 4.29-5.573 10.742-3.252 16.347 2.322 5.605 7.792 9.26 13.858 9.26h90c8.284 0 15-6.716 15-15s-6.716-15-15-15h-53.787l64.393-64.394c4.29-4.29 5.573-10.742 3.252-16.347-2.322-5.605-7.792-9.26-13.858-9.26h-90c-8.284 0-15 6.716-15 15s6.716 15 15 15z"/><path d="m31 436c0 24.813 20.187 45 45 45s45-20.187 45-45-20.187-45-45-45-45 20.187-45 45zm60 0c0 8.271-6.729 15-15 15s-15-6.729-15-15 6.729-15 15-15 15 6.729 15 15z"/><path d="m107.316 329.688c-1.177 5.125-1.544 10.472-1.053 15.906 1.193 13.21 7.398 26.129 17.472 36.379 15.471 15.74 37.813 23.035 60.53 21.488 23.496-1.6 48.208-12.412 72.058-31.428 17.585 12.305 38.351 18.967 59.677 18.967 41.469 0 78.747-24.673 95.512-62.291 56.695-9.769 100.488-58.622 100.488-117.709 0-50.77-32.934-96.167-81.951-112.963-6.031-2.067-12.236-3.653-18.536-4.743-16.763-37.622-54.042-62.294-95.513-62.294-21.457 0-42.347 6.744-60 19.194-17.654-12.45-38.543-19.194-60-19.194-41.469 0-78.747 24.673-95.512 62.291-26.09 4.496-50.079 17.369-68.327 36.836-20.739 22.125-32.161 50.847-32.161 80.873 0 60.738 46.648 111.732 107.316 118.688zm5.293-207.767c5.873-.552 10.876-4.494 12.788-10.074 10.416-30.413 38.79-50.847 70.603-50.847 18.256 0 36 6.926 49.961 19.502 5.706 5.14 14.373 5.14 20.079 0 13.96-12.576 31.703-19.502 49.96-19.502 31.813 0 60.187 20.434 70.604 50.847 1.911 5.58 6.915 9.522 12.787 10.074 7.143.671 14.186 2.184 20.934 4.496 36.889 12.641 61.675 46.632 61.675 84.583 0 45.597-36.286 84.726-82.609 89.079-5.873.552-10.876 4.494-12.787 10.074-10.417 30.413-38.791 50.847-70.604 50.847-18.257 0-36-6.926-49.96-19.501-5.706-5.141-14.372-5.141-20.079 0-43.946 39.587-82.307 38.292-100.829 19.446-8.675-8.826-13.474-23.19-3.511-33.873 3.9-4.182 5.083-10.216 3.051-15.561s-6.925-9.069-12.618-9.604l-19.445-1.827c-46.323-4.354-82.609-43.483-82.609-89.08s36.286-84.726 82.609-89.079z"/></g></svg>